<?xml version="1.0" encoding="UTF-8"?><svg id="Layer_2" xmlns="http://www.w3.org/2000/svg" viewBox="0 0 100 100"><g id="a"><circle cx="50" cy="50" r="50" style="stroke-width:0px;"/><path d="M54.8,64.86c0,8.19,6.62,14.8,14.91,14.8s14.91-6.62,14.91-14.8-6.62-14.8-14.91-14.8-14.91,6.62-14.91,14.8Z" style="fill:#fff; stroke-width:0px;"/><path d="M54.8,31.33c0,6.17,5.05,11.21,11.21,11.21s11.21-5.05,11.21-11.21-5.05-11.21-11.21-11.21-11.21,5.05-11.21,11.21Z" style="fill:#fff; stroke-width:0px;"/><path d="M19.48,58.47v-28.6c0-5.27,4.26-9.64,9.64-9.64h21.08c-3.81,3.14-4.93,6.28-4.93,12.11v4.93c-.11,10.2-.11,20.3-.22,30.5,0,6.73-5.38,12.11-12.11,12.11h-13.57v-8.52l.11-12.9Z" style="fill:#fff; stroke-width:0px;"/></g></svg>